<svg width="20" height="20" viewBox="0 0 20 20" fill="none" xmlns="http://www.w3.org/2000/svg">
<path d="M6.66675 1.66666V4.16666" stroke="#292D32" stroke-width="1.25" stroke-miterlimit="10" stroke-linecap="round" stroke-linejoin="round"/>
<path d="M13.3333 1.66666V4.16666" stroke="#292D32" stroke-width="1.25" stroke-miterlimit="10" stroke-linecap="round" stroke-linejoin="round"/>
<path d="M13.3333 2.91666C16.1083 3.06666 17.5 4.12499 17.5 8.04166V13.1917C17.5 16.625 16.6667 18.3417 12.5 18.3417H7.5C3.33333 18.3417 2.5 16.625 2.5 13.1917V8.04166C2.5 4.12499 3.89167 3.07499 6.66667 2.91666H13.3333Z" stroke="#292D32" stroke-width="1.25" stroke-miterlimit="10" stroke-linecap="round" stroke-linejoin="round"/>
<path d="M17.2916 14.6667H2.70825" stroke="#292D32" stroke-width="1.25" stroke-miterlimit="10" stroke-linecap="round" stroke-linejoin="round"/>
<path d="M10.0001 6.875C8.97508 6.875 8.10841 7.43333 8.10841 8.51667C8.10841 9.03333 8.35008 9.425 8.71675 9.675C8.20841 9.975 7.91675 10.4583 7.91675 11.025C7.91675 12.0583 8.70841 12.7 10.0001 12.7C11.2834 12.7 12.0834 12.0583 12.0834 11.025C12.0834 10.4583 11.7917 9.96667 11.2751 9.675C11.6501 9.41667 11.8834 9.03333 11.8834 8.51667C11.8834 7.43333 11.0251 6.875 10.0001 6.875ZM10.0001 9.24167C9.56675 9.24167 9.25008 8.98333 9.25008 8.575C9.25008 8.15833 9.56675 7.91667 10.0001 7.91667C10.4334 7.91667 10.7501 8.15833 10.7501 8.575C10.7501 8.98333 10.4334 9.24167 10.0001 9.24167ZM10.0001 11.6667C9.45008 11.6667 9.05008 11.3917 9.05008 10.8917C9.05008 10.3917 9.45008 10.125 10.0001 10.125C10.5501 10.125 10.9501 10.4 10.9501 10.8917C10.9501 11.3917 10.5501 11.6667 10.0001 11.6667Z" fill="#292D32"/>
</svg>
