<svg width="28" height="28" viewBox="0 0 28 28" fill="none" xmlns="http://www.w3.org/2000/svg">
<rect width="28" height="28" rx="14" fill="#ABFF4F"/>
<path d="M18.3164 19C20.3164 19 20.8164 17.875 20.8164 16.5V11.5C20.8164 10.125 20.3164 9 18.3164 9C16.3164 9 15.8164 10.125 15.8164 11.5V16.5C15.8164 17.875 16.3164 19 18.3164 19Z" stroke="#01161E" stroke-width="1.25" stroke-linecap="round" stroke-linejoin="round"/>
<path d="M9.68359 19C7.68359 19 7.18359 17.875 7.18359 16.5V11.5C7.18359 10.125 7.68359 9 9.68359 9C11.6836 9 12.1836 10.125 12.1836 11.5V16.5C12.1836 17.875 11.6836 19 9.68359 19Z" stroke="#01161E" stroke-width="1.25" stroke-linecap="round" stroke-linejoin="round"/>
<path d="M12.1836 14H15.8169" stroke="#01161E" stroke-width="1.25" stroke-linecap="round" stroke-linejoin="round"/>
<path d="M22.75 16.0834V11.9167" stroke="#01161E" stroke-width="1.25" stroke-linecap="round" stroke-linejoin="round"/>
<path d="M5.25 16.0834V11.9167" stroke="#01161E" stroke-width="1.25" stroke-linecap="round" stroke-linejoin="round"/>
</svg>
