<svg width="28" height="28" viewBox="0 0 28 28" fill="none" xmlns="http://www.w3.org/2000/svg">
<rect width="28" height="28" rx="14" fill="#ABFF4F"/>
<path fill-rule="evenodd" clip-rule="evenodd" d="M11.739 17.1053C11.8795 17.0681 12.0293 17.1067 12.1342 17.2074L13.4878 18.5057C13.6003 18.6136 13.6431 18.7753 13.5988 18.9247L13.3033 19.922C13.2295 20.171 13.0801 20.3908 12.8757 20.5509L10.941 22.0664C10.3976 22.4921 9.61192 22.3967 9.18621 21.8532C8.76046 21.3098 8.85592 20.5241 9.39938 20.0984L11.0198 18.829L11.4463 17.3897C11.4876 17.2503 11.5985 17.1426 11.739 17.1053ZM12.051 18.2822L11.781 19.1933C11.7563 19.2763 11.7065 19.3496 11.6384 19.4029L9.91325 20.7544C9.73213 20.8963 9.7003 21.1582 9.84221 21.3393C9.98413 21.5205 10.246 21.5523 10.4272 21.4104L12.3618 19.8949C12.4299 19.8415 12.4798 19.7682 12.5043 19.6852L12.7278 18.9314L12.051 18.2822Z" fill="#01161E"/>
<path fill-rule="evenodd" clip-rule="evenodd" d="M15.6666 8.99999C16.357 8.99999 16.9166 8.44036 16.9166 7.74999C16.9166 7.05964 16.357 6.49999 15.6666 6.49999C14.9763 6.49999 14.4166 7.05964 14.4166 7.74999C14.4166 8.44036 14.9763 8.99999 15.6666 8.99999ZM15.6666 9.83332C16.8172 9.83332 17.7499 8.90057 17.7499 7.74999C17.7499 6.5994 16.8172 5.66666 15.6666 5.66666C14.516 5.66666 13.5833 6.5994 13.5833 7.74999C13.5833 8.90057 14.516 9.83332 15.6666 9.83332Z" fill="#01161E"/>
<path fill-rule="evenodd" clip-rule="evenodd" d="M13.0569 9.98511C13.6519 9.76399 14.291 9.77699 14.8649 10.0737C15.4108 10.3559 15.7805 10.8332 16.013 11.3326C16.1001 11.5194 16.1805 11.6939 16.2557 11.857C16.4389 12.2544 16.5894 12.5807 16.7329 12.8658C16.9355 13.2685 17.0837 13.5044 17.2146 13.6569C17.3267 13.7876 17.4234 13.8539 17.5472 13.9022C17.6936 13.9594 17.9322 14.0117 18.3566 14.0244C18.9994 14.0437 19.5047 14.5803 19.4855 15.223C19.4662 15.8657 18.9296 16.3712 18.2869 16.3519C17.7215 16.3349 17.1893 16.2623 16.7001 16.0712C16.1882 15.8712 15.7845 15.5659 15.4477 15.1735C15.4077 15.1269 15.3689 15.0794 15.3311 15.0309L15.1634 15.9074L16.983 17.7029C17.0989 17.8172 17.1895 17.9547 17.249 18.1062L18.2841 20.7436C18.519 21.3421 18.2243 22.0177 17.6257 22.2527C17.0271 22.4876 16.3515 22.1928 16.1166 21.5943L15.1717 19.1869L11.8971 15.9558C11.6429 15.7049 11.5178 15.3511 11.558 14.9961L11.6934 13.8001C11.3216 14.2809 11.0089 14.8586 10.7908 15.5421C10.5953 16.1547 9.94023 16.4928 9.32768 16.2973C8.71514 16.1018 8.37702 15.4467 8.57252 14.8342C9.30902 12.5266 10.9751 10.7888 13.0431 9.99032L13.0456 9.98936L13.0569 9.98511ZM13.3484 10.7658L13.3421 10.7682C11.5159 11.4737 10.028 13.0147 9.36643 15.0875C9.31085 15.2617 9.40693 15.4478 9.58106 15.5034C9.75514 15.5589 9.94135 15.4629 9.99693 15.2887C10.411 13.9914 11.1324 13.0102 11.9804 12.3176C12.1116 12.2104 12.2947 12.1934 12.4434 12.2745C12.5922 12.3557 12.677 12.5188 12.6579 12.6872L12.3861 15.0898C12.3746 15.1907 12.4101 15.2913 12.4824 15.3626L15.8199 18.6557C15.8614 18.6967 15.8939 18.7459 15.9151 18.8001L16.8923 21.2898C16.9591 21.4599 17.1511 21.5437 17.3212 21.4769C17.4914 21.4102 17.5751 21.2182 17.5084 21.048L16.4733 18.4107C16.4564 18.3676 16.4306 18.3285 16.3976 18.296L14.4196 16.3443C14.3206 16.2466 14.2769 16.106 14.3031 15.9694L14.7117 13.8336C14.745 13.6596 14.8846 13.5257 15.0598 13.4997C15.235 13.4737 15.4075 13.5614 15.4899 13.7182C15.6774 14.0753 15.8653 14.3805 16.08 14.6307C16.3365 14.9295 16.6304 15.1493 17.0033 15.2949C17.3699 15.4382 17.797 15.5035 18.3118 15.5189C18.4945 15.5244 18.647 15.3807 18.6525 15.1981C18.658 15.0154 18.5143 14.8629 18.3316 14.8574C17.8569 14.8432 17.5132 14.7836 17.2441 14.6785C16.9815 14.5759 16.7749 14.4241 16.5822 14.1997C16.3842 13.969 16.1998 13.6604 15.9884 13.2404C15.8379 12.9412 15.6818 12.6027 15.5014 12.2112L15.499 12.2062C15.4237 12.0428 15.3439 11.8696 15.2576 11.6844C15.0785 11.2998 14.8195 10.9884 14.4821 10.8139C14.1372 10.6356 13.7449 10.6187 13.3484 10.7658Z" fill="#01161E"/>
</svg>
